<svg id="visual" viewBox="0 0 900 600" width="900" height="600" xmlns="http://www.w3.org/2000/svg" xmlns:xlink="http://www.w3.org/1999/xlink" version="1.1"><rect x="0" y="0" width="900" height="600" fill="#000b16"></rect><path d="M499 0L477.2 14.3C455.3 28.7 411.7 57.3 412.3 85.8C413 114.3 458 142.7 467.5 171.2C477 199.7 451 228.3 445.8 257C440.7 285.7 456.3 314.3 455.8 343C455.3 371.7 438.7 400.3 417.8 428.8C397 457.3 372 485.7 389.2 514.2C406.3 542.7 465.7 571.3 495.3 585.7L525 600L0 600L0 585.7C0 571.3 0 542.7 0 514.2C0 485.7 0 457.3 0 428.8C0 400.3 0 371.7 0 343C0 314.3 0 285.7 0 257C0 228.3 0 199.7 0 171.2C0 142.7 0 114.3 0 85.8C0 57.3 0 28.7 0 14.3L0 0Z" fill="#fa7268"></path><path d="M401 0L393.3 14.3C385.7 28.7 370.3 57.3 352.8 85.8C335.3 114.3 315.7 142.7 328.3 171.2C341 199.7 386 228.3 407 257C428 285.7 425 314.3 423.3 343C421.7 371.7 421.3 400.3 405.2 428.8C389 457.3 357 485.7 358.8 514.2C360.7 542.7 396.3 571.3 414.2 585.7L432 600L0 600L0 585.7C0 571.3 0 542.7 0 514.2C0 485.7 0 457.3 0 428.8C0 400.3 0 371.7 0 343C0 314.3 0 285.7 0 257C0 228.3 0 199.7 0 171.2C0 142.7 0 114.3 0 85.8C0 57.3 0 28.7 0 14.3L0 0Z" fill="#fd8982"></path><path d="M212 0L211.2 14.3C210.3 28.7 208.7 57.3 228 85.8C247.3 114.3 287.7 142.7 294.3 171.2C301 199.7 274 228.3 255.8 257C237.7 285.7 228.3 314.3 237.8 343C247.3 371.7 275.7 400.3 272.8 428.8C270 457.3 236 485.7 241.5 514.2C247 542.7 292 571.3 314.5 585.7L337 600L0 600L0 585.7C0 571.3 0 542.7 0 514.2C0 485.7 0 457.3 0 428.8C0 400.3 0 371.7 0 343C0 314.3 0 285.7 0 257C0 228.3 0 199.7 0 171.2C0 142.7 0 114.3 0 85.8C0 57.3 0 28.7 0 14.3L0 0Z" fill="#fd9f9b"></path><path d="M228 0L209.8 14.3C191.7 28.7 155.3 57.3 152.5 85.8C149.7 114.3 180.3 142.7 182.5 171.2C184.7 199.7 158.3 228.3 153.5 257C148.7 285.7 165.3 314.3 169.3 343C173.3 371.7 164.7 400.3 160.8 428.8C157 457.3 158 485.7 162.7 514.2C167.3 542.7 175.7 571.3 179.8 585.7L184 600L0 600L0 585.7C0 571.3 0 542.7 0 514.2C0 485.7 0 457.3 0 428.8C0 400.3 0 371.7 0 343C0 314.3 0 285.7 0 257C0 228.3 0 199.7 0 171.2C0 142.7 0 114.3 0 85.8C0 57.3 0 28.7 0 14.3L0 0Z" fill="#fbb5b3"></path><path d="M119 0L114.3 14.3C109.7 28.7 100.3 57.3 96.8 85.8C93.3 114.3 95.7 142.7 89.8 171.2C84 199.7 70 228.3 70.3 257C70.7 285.7 85.3 314.3 99.3 343C113.3 371.7 126.7 400.3 129 428.8C131.3 457.3 122.7 485.7 113.5 514.2C104.3 542.7 94.7 571.3 89.8 585.7L85 600L0 600L0 585.7C0 571.3 0 542.7 0 514.2C0 485.7 0 457.3 0 428.8C0 400.3 0 371.7 0 343C0 314.3 0 285.7 0 257C0 228.3 0 199.7 0 171.2C0 142.7 0 114.3 0 85.8C0 57.3 0 28.7 0 14.3L0 0Z" fill="#f7caca"></path></svg>