<svg id="visual" viewBox="0 0 900 600" width="900" height="600" xmlns="http://www.w3.org/2000/svg" xmlns:xlink="http://www.w3.org/1999/xlink" version="1.1"><rect x="0" y="0" width="900" height="600" fill="#001220"></rect><path d="M465 0L448 14.3C431 28.7 397 57.3 392.8 85.8C388.7 114.3 414.3 142.7 418.8 171.2C423.3 199.7 406.7 228.3 393.5 257C380.3 285.7 370.7 314.3 366.7 343C362.7 371.7 364.3 400.3 382.7 428.8C401 457.3 436 485.7 428.2 514.2C420.3 542.7 369.7 571.3 344.3 585.7L319 600L0 600L0 585.7C0 571.3 0 542.7 0 514.2C0 485.7 0 457.3 0 428.8C0 400.3 0 371.7 0 343C0 314.3 0 285.7 0 257C0 228.3 0 199.7 0 171.2C0 142.7 0 114.3 0 85.8C0 57.3 0 28.7 0 14.3L0 0Z" fill="#fa7268"></path><path d="M301 0L321.2 14.3C341.3 28.7 381.7 57.3 387.5 85.8C393.3 114.3 364.7 142.7 356.7 171.2C348.7 199.7 361.3 228.3 375.8 257C390.3 285.7 406.7 314.3 405.7 343C404.7 371.7 386.3 400.3 359.2 428.8C332 457.3 296 485.7 278.3 514.2C260.7 542.7 261.3 571.3 261.7 585.7L262 600L0 600L0 585.7C0 571.3 0 542.7 0 514.2C0 485.7 0 457.3 0 428.8C0 400.3 0 371.7 0 343C0 314.3 0 285.7 0 257C0 228.3 0 199.7 0 171.2C0 142.7 0 114.3 0 85.8C0 57.3 0 28.7 0 14.3L0 0Z" fill="#ef5f67"></path><path d="M205 0L219.7 14.3C234.3 28.7 263.7 57.3 280.2 85.8C296.7 114.3 300.3 142.7 292.7 171.2C285 199.7 266 228.3 266.7 257C267.3 285.7 287.7 314.3 292.8 343C298 371.7 288 400.3 281.2 428.8C274.3 457.3 270.7 485.7 271.7 514.2C272.7 542.7 278.3 571.3 281.2 585.7L284 600L0 600L0 585.7C0 571.3 0 542.7 0 514.2C0 485.7 0 457.3 0 428.8C0 400.3 0 371.7 0 343C0 314.3 0 285.7 0 257C0 228.3 0 199.7 0 171.2C0 142.7 0 114.3 0 85.8C0 57.3 0 28.7 0 14.3L0 0Z" fill="#e34c67"></path><path d="M198 0L202.3 14.3C206.7 28.7 215.3 57.3 207 85.8C198.7 114.3 173.3 142.7 162.5 171.2C151.7 199.7 155.3 228.3 151.3 257C147.3 285.7 135.7 314.3 146 343C156.3 371.7 188.7 400.3 197.7 428.8C206.7 457.3 192.3 485.7 184.3 514.2C176.3 542.7 174.7 571.3 173.8 585.7L173 600L0 600L0 585.7C0 571.3 0 542.7 0 514.2C0 485.7 0 457.3 0 428.8C0 400.3 0 371.7 0 343C0 314.3 0 285.7 0 257C0 228.3 0 199.7 0 171.2C0 142.7 0 114.3 0 85.8C0 57.3 0 28.7 0 14.3L0 0Z" fill="#d53867"></path><path d="M75 0L86.2 14.3C97.3 28.7 119.7 57.3 129.3 85.8C139 114.3 136 142.7 133.5 171.2C131 199.7 129 228.3 120.7 257C112.3 285.7 97.7 314.3 91.3 343C85 371.7 87 400.3 87 428.8C87 457.3 85 485.7 93.7 514.2C102.3 542.7 121.7 571.3 131.3 585.7L141 600L0 600L0 585.7C0 571.3 0 542.7 0 514.2C0 485.7 0 457.3 0 428.8C0 400.3 0 371.7 0 343C0 314.3 0 285.7 0 257C0 228.3 0 199.7 0 171.2C0 142.7 0 114.3 0 85.8C0 57.3 0 28.7 0 14.3L0 0Z" fill="#c62368"></path></svg>