<svg id="visual" viewBox="0 0 900 600" width="900" height="600" xmlns="http://www.w3.org/2000/svg" xmlns:xlink="http://www.w3.org/1999/xlink" version="1.1"><rect x="0" y="0" width="900" height="600" fill="#001220"></rect><defs><linearGradient id="grad1_0" x1="33.3%" y1="100%" x2="100%" y2="0%"><stop offset="20%" stop-color="#fbae3c" stop-opacity="1"></stop><stop offset="80%" stop-color="#fbae3c" stop-opacity="1"></stop></linearGradient></defs><defs><linearGradient id="grad1_1" x1="33.3%" y1="100%" x2="100%" y2="0%"><stop offset="20%" stop-color="#fbae3c" stop-opacity="1"></stop><stop offset="80%" stop-color="#96446e" stop-opacity="1"></stop></linearGradient></defs><defs><linearGradient id="grad1_2" x1="33.3%" y1="100%" x2="100%" y2="0%"><stop offset="20%" stop-color="#001220" stop-opacity="1"></stop><stop offset="80%" stop-color="#96446e" stop-opacity="1"></stop></linearGradient></defs><defs><linearGradient id="grad2_0" x1="0%" y1="100%" x2="66.7%" y2="0%"><stop offset="20%" stop-color="#fbae3c" stop-opacity="1"></stop><stop offset="80%" stop-color="#fbae3c" stop-opacity="1"></stop></linearGradient></defs><defs><linearGradient id="grad2_1" x1="0%" y1="100%" x2="66.7%" y2="0%"><stop offset="20%" stop-color="#96446e" stop-opacity="1"></stop><stop offset="80%" stop-color="#fbae3c" stop-opacity="1"></stop></linearGradient></defs><defs><linearGradient id="grad2_2" x1="0%" y1="100%" x2="66.7%" y2="0%"><stop offset="20%" stop-color="#96446e" stop-opacity="1"></stop><stop offset="80%" stop-color="#001220" stop-opacity="1"></stop></linearGradient></defs><g transform="translate(900, 600)"><path d="M-405.6 0C-403.8 -86.2 -402.1 -172.5 -351.3 -202.8C-300.5 -233.2 -200.7 -207.6 -134 -232.1C-67.3 -256.6 -33.6 -331.1 0 -405.6L0 0Z" fill="#3d3056"></path><path d="M-270.4 0C-269.2 -57.5 -268 -115 -234.2 -135.2C-200.3 -155.4 -133.8 -138.4 -89.3 -154.7C-44.9 -171.1 -22.4 -220.7 0 -270.4L0 0Z" fill="#e1685e"></path><path d="M-135.2 0C-134.6 -28.7 -134 -57.5 -117.1 -67.6C-100.2 -77.7 -66.9 -69.2 -44.7 -77.4C-22.4 -85.5 -11.2 -110.4 0 -135.2L0 0Z" fill="#fbae3c"></path></g><g transform="translate(0, 0)"><path d="M405.6 0C345.4 41.9 285.2 83.8 258.9 149.5C232.7 215.2 240.3 304.6 202.8 351.3C165.3 397.9 82.7 401.8 0 405.6L0 0Z" fill="#3d3056"></path><path d="M270.4 0C230.3 27.9 190.1 55.9 172.6 99.7C155.1 143.5 160.2 203.1 135.2 234.2C110.2 265.3 55.1 267.9 0 270.4L0 0Z" fill="#e1685e"></path><path d="M135.2 0C115.1 14 95.1 27.9 86.3 49.8C77.6 71.7 80.1 101.5 67.6 117.1C55.1 132.6 27.6 133.9 0 135.2L0 0Z" fill="#fbae3c"></path></g></svg>