<svg id="visual" viewBox="0 0 960 540" width="960" height="540" xmlns="http://www.w3.org/2000/svg" xmlns:xlink="http://www.w3.org/1999/xlink" version="1.1"><rect x="0" y="0" width="960" height="540" fill="#000000"></rect><path d="M468 0L524 0L524 42L530 42L530 83L474 83L474 125L557 125L557 166L499 166L499 208L503 208L503 249L559 249L559 291L494 291L494 332L553 332L553 374L518 374L518 415L583 415L583 457L455 457L455 498L501 498L501 540L0 540L0 498L0 498L0 457L0 457L0 415L0 415L0 374L0 374L0 332L0 332L0 291L0 291L0 249L0 249L0 208L0 208L0 166L0 166L0 125L0 125L0 83L0 83L0 42L0 42L0 0L0 0Z" fill="#030622"></path><path d="M450 0L382 0L382 42L434 42L434 83L485 83L485 125L482 125L482 166L495 166L495 208L467 208L467 249L478 249L478 291L437 291L437 332L447 332L447 374L473 374L473 415L470 415L470 457L436 457L436 498L473 498L473 540L0 540L0 498L0 498L0 457L0 457L0 415L0 415L0 374L0 374L0 332L0 332L0 291L0 291L0 249L0 249L0 208L0 208L0 166L0 166L0 125L0 125L0 83L0 83L0 42L0 42L0 0L0 0Z" fill="#040c30"></path><path d="M315 0L431 0L431 42L343 42L343 83L391 83L391 125L415 125L415 166L367 166L367 208L308 208L308 249L414 249L414 291L355 291L355 332L417 332L417 374L417 374L417 415L342 415L342 457L382 457L382 498L431 498L431 540L0 540L0 498L0 498L0 457L0 457L0 415L0 415L0 374L0 374L0 332L0 332L0 291L0 291L0 249L0 249L0 208L0 208L0 166L0 166L0 125L0 125L0 83L0 83L0 42L0 42L0 0L0 0Z" fill="#00103d"></path><path d="M296 0L317 0L317 42L329 42L329 83L341 83L341 125L302 125L302 166L258 166L258 208L292 208L292 249L312 249L312 291L243 291L243 332L256 332L256 374L341 374L341 415L260 415L260 457L267 457L267 498L311 498L311 540L0 540L0 498L0 498L0 457L0 457L0 415L0 415L0 374L0 374L0 332L0 332L0 291L0 291L0 249L0 249L0 208L0 208L0 166L0 166L0 125L0 125L0 83L0 83L0 42L0 42L0 0L0 0Z" fill="#00124b"></path><path d="M217 0L192 0L192 42L229 42L229 83L211 83L211 125L230 125L230 166L175 166L175 208L227 208L227 249L238 249L238 291L273 291L273 332L174 332L174 374L191 374L191 415L238 415L238 457L266 457L266 498L195 498L195 540L0 540L0 498L0 498L0 457L0 457L0 415L0 415L0 374L0 374L0 332L0 332L0 291L0 291L0 249L0 249L0 208L0 208L0 166L0 166L0 125L0 125L0 83L0 83L0 42L0 42L0 0L0 0Z" fill="#001359"></path><path d="M188 0L158 0L158 42L181 42L181 83L151 83L151 125L121 125L121 166L154 166L154 208L154 208L154 249L195 249L195 291L168 291L168 332L117 332L117 374L119 374L119 415L133 415L133 457L120 457L120 498L141 498L141 540L0 540L0 498L0 498L0 457L0 457L0 415L0 415L0 374L0 374L0 332L0 332L0 291L0 291L0 249L0 249L0 208L0 208L0 166L0 166L0 125L0 125L0 83L0 83L0 42L0 42L0 0L0 0Z" fill="#011266"></path><path d="M84 0L58 0L58 42L110 42L110 83L66 83L66 125L116 125L116 166L89 166L89 208L45 208L45 249L76 249L76 291L96 291L96 332L126 332L126 374L92 374L92 415L97 415L97 457L95 457L95 498L99 498L99 540L0 540L0 498L0 498L0 457L0 457L0 415L0 415L0 374L0 374L0 332L0 332L0 291L0 291L0 249L0 249L0 208L0 208L0 166L0 166L0 125L0 125L0 83L0 83L0 42L0 42L0 0L0 0Z" fill="#0a1073"></path></svg>