<svg id="visual" viewBox="0 0 960 540" width="960" height="540" xmlns="http://www.w3.org/2000/svg" xmlns:xlink="http://www.w3.org/1999/xlink" version="1.1"><rect x="0" y="0" width="960" height="540" fill="#000000"></rect><path d="M303 0L400 0L400 42L402 42L402 83L304 83L304 125L348 125L348 166L396 166L396 208L400 208L400 249L417 249L417 291L295 291L295 332L289 332L289 374L370 374L370 415L417 415L417 457L374 457L374 498L317 498L317 540L0 540L0 498L0 498L0 457L0 457L0 415L0 415L0 374L0 374L0 332L0 332L0 291L0 291L0 249L0 249L0 208L0 208L0 166L0 166L0 125L0 125L0 83L0 83L0 42L0 42L0 0L0 0Z" fill="#030622"></path><path d="M315 0L338 0L338 42L252 42L252 83L244 83L244 125L303 125L303 166L298 166L298 208L297 208L297 249L323 249L323 291L312 291L312 332L310 332L310 374L314 374L314 415L248 415L248 457L264 457L264 498L265 498L265 540L0 540L0 498L0 498L0 457L0 457L0 415L0 415L0 374L0 374L0 332L0 332L0 291L0 291L0 249L0 249L0 208L0 208L0 166L0 166L0 125L0 125L0 83L0 83L0 42L0 42L0 0L0 0Z" fill="#020e36"></path><path d="M236 0L217 0L217 42L193 42L193 83L246 83L246 125L195 125L195 166L181 166L181 208L228 208L228 249L223 249L223 291L255 291L255 332L261 332L261 374L170 374L170 415L236 415L236 457L223 457L223 498L166 498L166 540L0 540L0 498L0 498L0 457L0 457L0 415L0 415L0 374L0 374L0 332L0 332L0 291L0 291L0 249L0 249L0 208L0 208L0 166L0 166L0 125L0 125L0 83L0 83L0 42L0 42L0 0L0 0Z" fill="#00124b"></path><path d="M192 0L149 0L149 42L180 42L180 83L130 83L130 125L109 125L109 166L125 166L125 208L156 208L156 249L189 249L189 291L135 291L135 332L104 332L104 374L156 374L156 415L176 415L176 457L138 457L138 498L176 498L176 540L0 540L0 498L0 498L0 457L0 457L0 415L0 415L0 374L0 374L0 332L0 332L0 291L0 291L0 249L0 249L0 208L0 208L0 166L0 166L0 125L0 125L0 83L0 83L0 42L0 42L0 0L0 0Z" fill="#00125f"></path><path d="M116 0L44 0L44 42L94 42L94 83L74 83L74 125L65 125L65 166L96 166L96 208L88 208L88 249L120 249L120 291L115 291L115 332L99 332L99 374L52 374L52 415L41 415L41 457L83 457L83 498L68 498L68 540L0 540L0 498L0 498L0 457L0 457L0 415L0 415L0 374L0 374L0 332L0 332L0 291L0 291L0 249L0 249L0 208L0 208L0 166L0 166L0 125L0 125L0 83L0 83L0 42L0 42L0 0L0 0Z" fill="#0a1073"></path></svg>