<svg id="visual" viewBox="0 0 900 600" width="900" height="600" xmlns="http://www.w3.org/2000/svg" xmlns:xlink="http://www.w3.org/1999/xlink" version="1.1"><rect x="0" y="0" width="900" height="600" fill="#000b16"></rect><path d="M0 166L25 170.3C50 174.7 100 183.3 150 176.2C200 169 250 146 300 142.2C350 138.3 400 153.7 450 174.8C500 196 550 223 600 240.8C650 258.7 700 267.3 750 251.7C800 236 850 196 875 176L900 156L900 601L875 601C850 601 800 601 750 601C700 601 650 601 600 601C550 601 500 601 450 601C400 601 350 601 300 601C250 601 200 601 150 601C100 601 50 601 25 601L0 601Z" fill="#fa7268"></path><path d="M0 292L25 286.2C50 280.3 100 268.7 150 267.5C200 266.3 250 275.7 300 280.8C350 286 400 287 450 278.8C500 270.7 550 253.3 600 262.2C650 271 700 306 750 326.5C800 347 850 353 875 356L900 359L900 601L875 601C850 601 800 601 750 601C700 601 650 601 600 601C550 601 500 601 450 601C400 601 350 601 300 601C250 601 200 601 150 601C100 601 50 601 25 601L0 601Z" fill="#fd908a"></path><path d="M0 316L25 331C50 346 100 376 150 396.5C200 417 250 428 300 421.8C350 415.7 400 392.3 450 389C500 385.7 550 402.3 600 413.8C650 425.3 700 431.7 750 429.2C800 426.7 850 415.3 875 409.7L900 404L900 601L875 601C850 601 800 601 750 601C700 601 650 601 600 601C550 601 500 601 450 601C400 601 350 601 300 601C250 601 200 601 150 601C100 601 50 601 25 601L0 601Z" fill="#fcadab"></path><path d="M0 506L25 510.7C50 515.3 100 524.7 150 516.2C200 507.7 250 481.3 300 481.7C350 482 400 509 450 516C500 523 550 510 600 492.2C650 474.3 700 451.7 750 455C800 458.3 850 487.7 875 502.3L900 517L900 601L875 601C850 601 800 601 750 601C700 601 650 601 600 601C550 601 500 601 450 601C400 601 350 601 300 601C250 601 200 601 150 601C100 601 50 601 25 601L0 601Z" fill="#f7caca"></path></svg>