<svg id="visual" viewBox="0 0 900 600" width="900" height="600" xmlns="http://www.w3.org/2000/svg" xmlns:xlink="http://www.w3.org/1999/xlink" version="1.1"><rect x="0" y="0" width="900" height="600" fill="#001220"></rect><defs><linearGradient id="grad1_0" x1="33.3%" y1="100%" x2="100%" y2="0%"><stop offset="20%" stop-color="#fbae3c" stop-opacity="1"></stop><stop offset="80%" stop-color="#fbae3c" stop-opacity="1"></stop></linearGradient></defs><defs><linearGradient id="grad1_1" x1="33.3%" y1="100%" x2="100%" y2="0%"><stop offset="20%" stop-color="#fbae3c" stop-opacity="1"></stop><stop offset="80%" stop-color="#e1685e" stop-opacity="1"></stop></linearGradient></defs><defs><linearGradient id="grad1_2" x1="33.3%" y1="100%" x2="100%" y2="0%"><stop offset="20%" stop-color="#96446e" stop-opacity="1"></stop><stop offset="80%" stop-color="#e1685e" stop-opacity="1"></stop></linearGradient></defs><defs><linearGradient id="grad1_3" x1="33.3%" y1="100%" x2="100%" y2="0%"><stop offset="20%" stop-color="#96446e" stop-opacity="1"></stop><stop offset="80%" stop-color="#3d3056" stop-opacity="1"></stop></linearGradient></defs><defs><linearGradient id="grad1_4" x1="33.3%" y1="100%" x2="100%" y2="0%"><stop offset="20%" stop-color="#001220" stop-opacity="1"></stop><stop offset="80%" stop-color="#3d3056" stop-opacity="1"></stop></linearGradient></defs><defs><linearGradient id="grad2_0" x1="0%" y1="100%" x2="66.7%" y2="0%"><stop offset="20%" stop-color="#fbae3c" stop-opacity="1"></stop><stop offset="80%" stop-color="#fbae3c" stop-opacity="1"></stop></linearGradient></defs><defs><linearGradient id="grad2_1" x1="0%" y1="100%" x2="66.7%" y2="0%"><stop offset="20%" stop-color="#e1685e" stop-opacity="1"></stop><stop offset="80%" stop-color="#fbae3c" stop-opacity="1"></stop></linearGradient></defs><defs><linearGradient id="grad2_2" x1="0%" y1="100%" x2="66.7%" y2="0%"><stop offset="20%" stop-color="#e1685e" stop-opacity="1"></stop><stop offset="80%" stop-color="#96446e" stop-opacity="1"></stop></linearGradient></defs><defs><linearGradient id="grad2_3" x1="0%" y1="100%" x2="66.7%" y2="0%"><stop offset="20%" stop-color="#3d3056" stop-opacity="1"></stop><stop offset="80%" stop-color="#96446e" stop-opacity="1"></stop></linearGradient></defs><defs><linearGradient id="grad2_4" x1="0%" y1="100%" x2="66.7%" y2="0%"><stop offset="20%" stop-color="#3d3056" stop-opacity="1"></stop><stop offset="80%" stop-color="#001220" stop-opacity="1"></stop></linearGradient></defs><g transform="translate(900, 600)"><path d="M-540.8 0C-493 -74.6 -445.3 -149.3 -406.2 -234.5C-367.1 -319.7 -336.7 -415.6 -270.4 -468.4C-204.2 -521.2 -102.1 -531 0 -540.8L0 0Z" fill="#18223c"></path><path d="M-432.7 0C-394.4 -59.7 -356.2 -119.4 -324.9 -187.6C-293.7 -255.8 -269.3 -332.4 -216.3 -374.7C-163.3 -417 -81.7 -424.8 0 -432.7L0 0Z" fill="#683a67"></path><path d="M-324.5 0C-295.8 -44.8 -267.2 -89.6 -243.7 -140.7C-220.2 -191.8 -202 -249.3 -162.2 -281C-122.5 -312.7 -61.3 -318.6 0 -324.5L0 0Z" fill="#c0526a"></path><path d="M-216.3 0C-197.2 -29.9 -178.1 -59.7 -162.5 -93.8C-146.8 -127.9 -134.7 -166.2 -108.2 -187.3C-81.7 -208.5 -40.8 -212.4 0 -216.3L0 0Z" fill="#f6884d"></path><path d="M-108.2 0C-98.6 -14.9 -89.1 -29.9 -81.2 -46.9C-73.4 -63.9 -67.3 -83.1 -54.1 -93.7C-40.8 -104.2 -20.4 -106.2 0 -108.2L0 0Z" fill="#fbae3c"></path></g><g transform="translate(0, 0)"><path d="M540.8 0C488.9 72.2 436.9 144.5 398.4 230C359.8 315.5 334.6 414.4 270.4 468.4C206.2 522.4 103.1 531.6 0 540.8L0 0Z" fill="#18223c"></path><path d="M432.7 0C391.1 57.8 349.6 115.6 318.7 184C287.8 252.4 267.7 331.5 216.3 374.7C165 417.9 82.5 425.3 0 432.7L0 0Z" fill="#683a67"></path><path d="M324.5 0C293.3 43.3 262.2 86.7 239 138C215.9 189.3 200.8 248.6 162.2 281C123.7 313.4 61.9 319 0 324.5L0 0Z" fill="#c0526a"></path><path d="M216.3 0C195.6 28.9 174.8 57.8 159.3 92C143.9 126.2 133.8 165.7 108.2 187.3C82.5 209 41.2 212.6 0 216.3L0 0Z" fill="#f6884d"></path><path d="M108.2 0C97.8 14.4 87.4 28.9 79.7 46C72 63.1 66.9 82.9 54.1 93.7C41.2 104.5 20.6 106.3 0 108.2L0 0Z" fill="#fbae3c"></path></g></svg>