<svg id="visual" viewBox="0 0 960 540" width="960" height="540" xmlns="http://www.w3.org/2000/svg" xmlns:xlink="http://www.w3.org/1999/xlink" version="1.1"><g stroke-width="1" stroke-linejoin="bevel"><path d="M454 273L436 248L412 289Z" fill="#011527" stroke="#011527"></path><path d="M412 289L442 304L454 273Z" fill="#011527" stroke="#011527"></path><path d="M418 303L442 304L412 289Z" fill="#001629" stroke="#001629"></path><path d="M436 248L418 235L412 289Z" fill="#010c14" stroke="#010c14"></path><path d="M418 235L387 276L412 289Z" fill="#010f19" stroke="#010f19"></path><path d="M412 289L387 276L418 303Z" fill="#011321" stroke="#011321"></path><path d="M473 187L410 225L418 235Z" fill="#010e17" stroke="#010e17"></path><path d="M418 235L410 225L387 276Z" fill="#011424" stroke="#011424"></path><path d="M432 329L464 311L442 304Z" fill="#00162c" stroke="#00162c"></path><path d="M442 304L464 311L454 273Z" fill="#011321" stroke="#011321"></path><path d="M410 225L373 273L387 276Z" fill="#01121e" stroke="#01121e"></path><path d="M387 276L325 351L418 303Z" fill="#01121e" stroke="#01121e"></path><path d="M421 394L432 329L325 351Z" fill="#010e17" stroke="#010e17"></path><path d="M418 303L432 329L442 304Z" fill="#01111c" stroke="#01111c"></path><path d="M523 276L492 234L454 273Z" fill="#011527" stroke="#011527"></path><path d="M454 273L492 234L436 248Z" fill="#01111c" stroke="#01111c"></path><path d="M436 248L473 187L418 235Z" fill="#010c14" stroke="#010c14"></path><path d="M496 377L498 312L464 311Z" fill="#010e17" stroke="#010e17"></path><path d="M464 311L498 312L454 273Z" fill="#011424" stroke="#011424"></path><path d="M492 234L487 216L436 248Z" fill="#00172f" stroke="#00172f"></path><path d="M498 312L523 276L454 273Z" fill="#00162c" stroke="#00162c"></path><path d="M492 234L508 210L487 216Z" fill="#01111c" stroke="#01111c"></path><path d="M508 210L473 187L487 216Z" fill="#010f19" stroke="#010f19"></path><path d="M487 216L473 187L436 248Z" fill="#011424" stroke="#011424"></path><path d="M421 394L449 365L432 329Z" fill="#011527" stroke="#011527"></path><path d="M432 329L449 365L464 311Z" fill="#001629" stroke="#001629"></path><path d="M473 187L424 174L410 225Z" fill="#001629" stroke="#001629"></path><path d="M410 225L321 208L373 273Z" fill="#01111c" stroke="#01111c"></path><path d="M523 276L508 210L492 234Z" fill="#010e17" stroke="#010e17"></path><path d="M424 174L381 179L410 225Z" fill="#011321" stroke="#011321"></path><path d="M530 359L529 326L498 312Z" fill="#010e17" stroke="#010e17"></path><path d="M498 312L529 326L523 276Z" fill="#00162c" stroke="#00162c"></path><path d="M473 187L434 153L424 174Z" fill="#00162c" stroke="#00162c"></path><path d="M424 174L434 153L381 179Z" fill="#00172f" stroke="#00172f"></path><path d="M470 100L434 153L473 187Z" fill="#011321" stroke="#011321"></path><path d="M325 351L432 329L418 303Z" fill="#010f19" stroke="#010f19"></path><path d="M449 365L496 377L464 311Z" fill="#011321" stroke="#011321"></path><path d="M461 444L496 377L449 365Z" fill="#011527" stroke="#011527"></path><path d="M327 197L410 225L381 179Z" fill="#00172f" stroke="#00172f"></path><path d="M327 197L321 208L410 225Z" fill="#00162c" stroke="#00162c"></path><path d="M373 273L325 351L387 276Z" fill="#01121e" stroke="#01121e"></path><path d="M347 160L327 197L381 179Z" fill="#01111c" stroke="#01111c"></path><path d="M314 345L325 351L373 273Z" fill="#00162c" stroke="#00162c"></path><path d="M496 377L530 359L498 312Z" fill="#011527" stroke="#011527"></path><path d="M529 326L563 278L523 276Z" fill="#010f19" stroke="#010f19"></path><path d="M523 276L563 278L508 210Z" fill="#01111c" stroke="#01111c"></path><path d="M591 286L563 278L529 326Z" fill="#01121e" stroke="#01121e"></path><path d="M281 261L314 345L373 273Z" fill="#010f19" stroke="#010f19"></path><path d="M341 147L347 160L381 179Z" fill="#011321" stroke="#011321"></path><path d="M281 227L281 261L321 208Z" fill="#00172f" stroke="#00172f"></path><path d="M281 227L321 208L274 142Z" fill="#001629" stroke="#001629"></path><path d="M321 208L281 261L373 273Z" fill="#01121e" stroke="#01121e"></path><path d="M434 153L341 147L381 179Z" fill="#011321" stroke="#011321"></path><path d="M347 160L324 150L327 197Z" fill="#01121e" stroke="#01121e"></path><path d="M274 142L321 208L327 197Z" fill="#00172f" stroke="#00172f"></path><path d="M341 147L324 150L347 160Z" fill="#01121e" stroke="#01121e"></path><path d="M606 306L591 286L529 326Z" fill="#010f19" stroke="#010f19"></path><path d="M596 187L575 163L508 210Z" fill="#011527" stroke="#011527"></path><path d="M606 306L592 286L591 286Z" fill="#011424" stroke="#011424"></path><path d="M591 286L596 187L563 278Z" fill="#011321" stroke="#011321"></path><path d="M404 445L424 437L421 394Z" fill="#01121e" stroke="#01121e"></path><path d="M421 394L461 444L449 365Z" fill="#010e17" stroke="#010e17"></path><path d="M560 443L570 362L530 359Z" fill="#011527" stroke="#011527"></path><path d="M379 431L421 394L325 351Z" fill="#010e17" stroke="#010e17"></path><path d="M527 443L530 359L496 377Z" fill="#01121e" stroke="#01121e"></path><path d="M530 359L570 362L529 326Z" fill="#011527" stroke="#011527"></path><path d="M287 463L379 431L325 351Z" fill="#010c14" stroke="#010c14"></path><path d="M379 431L404 445L421 394Z" fill="#00162c" stroke="#00162c"></path><path d="M434 465L461 444L424 437Z" fill="#011424" stroke="#011424"></path><path d="M424 437L461 444L421 394Z" fill="#010e17" stroke="#010e17"></path><path d="M524 119L473 187L508 210Z" fill="#00172f" stroke="#00172f"></path><path d="M524 119L470 100L473 187Z" fill="#001629" stroke="#001629"></path><path d="M434 153L340 97L341 147Z" fill="#010e17" stroke="#010e17"></path><path d="M341 147L340 97L324 150Z" fill="#011527" stroke="#011527"></path><path d="M575 163L524 119L508 210Z" fill="#00162c" stroke="#00162c"></path><path d="M570 362L606 306L529 326Z" fill="#011527" stroke="#011527"></path><path d="M596 187L508 210L563 278Z" fill="#00162c" stroke="#00162c"></path><path d="M596 187L591 286L592 286Z" fill="#010f19" stroke="#010f19"></path><path d="M524 119L475 92L470 100Z" fill="#00162c" stroke="#00162c"></path><path d="M470 100L440 85L434 153Z" fill="#010e17" stroke="#010e17"></path><path d="M616 183L596 187L592 286Z" fill="#011424" stroke="#011424"></path><path d="M475 92L440 85L470 100Z" fill="#011321" stroke="#011321"></path><path d="M592 165L574 150L575 163Z" fill="#010f19" stroke="#010f19"></path><path d="M575 163L574 150L524 119Z" fill="#01111c" stroke="#01111c"></path><path d="M579 127L572 142L604 140Z" fill="#01121e" stroke="#01121e"></path><path d="M574 150L572 142L524 119Z" fill="#011527" stroke="#011527"></path><path d="M524 119L527 99L475 92Z" fill="#011424" stroke="#011424"></path><path d="M404 445L434 465L424 437Z" fill="#00172f" stroke="#00172f"></path><path d="M461 444L527 443L496 377Z" fill="#010c14" stroke="#010c14"></path><path d="M421 477L434 465L404 445Z" fill="#011527" stroke="#011527"></path><path d="M596 187L592 165L575 163Z" fill="#00162c" stroke="#00162c"></path><path d="M440 85L340 97L434 153Z" fill="#00172f" stroke="#00172f"></path><path d="M324 150L274 142L327 197Z" fill="#010e17" stroke="#010e17"></path><path d="M516 461L527 443L461 444Z" fill="#011424" stroke="#011424"></path><path d="M570 362L623 318L606 306Z" fill="#010c14" stroke="#010c14"></path><path d="M579 127L527 99L524 119Z" fill="#011424" stroke="#011424"></path><path d="M460 0L427 16L440 85Z" fill="#00172f" stroke="#00172f"></path><path d="M596 396L623 318L570 362Z" fill="#00162c" stroke="#00162c"></path><path d="M606 306L654 280L592 286Z" fill="#010e17" stroke="#010e17"></path><path d="M596 187L616 183L592 165Z" fill="#01121e" stroke="#01121e"></path><path d="M281 261L253 364L314 345Z" fill="#001629" stroke="#001629"></path><path d="M314 345L256 387L325 351Z" fill="#010c14" stroke="#010c14"></path><path d="M385 481L421 477L404 445Z" fill="#011527" stroke="#011527"></path><path d="M244 373L253 364L199 338Z" fill="#011321" stroke="#011321"></path><path d="M274 98L274 142L324 150Z" fill="#011321" stroke="#011321"></path><path d="M196 264L217 295L281 261Z" fill="#010e17" stroke="#010e17"></path><path d="M385 481L404 445L379 431Z" fill="#00162c" stroke="#00162c"></path><path d="M485 512L516 461L461 444Z" fill="#011527" stroke="#011527"></path><path d="M654 280L616 183L592 286Z" fill="#011321" stroke="#011321"></path><path d="M604 140L572 142L574 150Z" fill="#010c14" stroke="#010c14"></path><path d="M572 142L579 127L524 119Z" fill="#01121e" stroke="#01121e"></path><path d="M560 443L596 396L570 362Z" fill="#00162c" stroke="#00162c"></path><path d="M604 140L574 150L592 165Z" fill="#00162c" stroke="#00162c"></path><path d="M485 512L461 444L434 465Z" fill="#011321" stroke="#011321"></path><path d="M527 443L560 443L530 359Z" fill="#01121e" stroke="#01121e"></path><path d="M253 364L256 387L314 345Z" fill="#011424" stroke="#011424"></path><path d="M385 481L425 482L421 477Z" fill="#011527" stroke="#011527"></path><path d="M421 477L425 482L434 465Z" fill="#011321" stroke="#011321"></path><path d="M274 142L243 173L281 227Z" fill="#001629" stroke="#001629"></path><path d="M253 364L244 373L256 387Z" fill="#001629" stroke="#001629"></path><path d="M217 295L253 364L281 261Z" fill="#010c14" stroke="#010c14"></path><path d="M196 264L281 261L281 227Z" fill="#001629" stroke="#001629"></path><path d="M287 463L385 481L379 431Z" fill="#011424" stroke="#011424"></path><path d="M516 461L560 443L527 443Z" fill="#010f19" stroke="#010f19"></path><path d="M579 127L533 81L527 99Z" fill="#010c14" stroke="#010c14"></path><path d="M527 99L533 81L475 92Z" fill="#00172f" stroke="#00172f"></path><path d="M616 183L604 140L592 165Z" fill="#010e17" stroke="#010e17"></path><path d="M579 127L584 46L533 81Z" fill="#00162c" stroke="#00162c"></path><path d="M361 55L336 74L340 97Z" fill="#011527" stroke="#011527"></path><path d="M340 97L274 98L324 150Z" fill="#011321" stroke="#011321"></path><path d="M274 142L236 164L243 173Z" fill="#010e17" stroke="#010e17"></path><path d="M361 55L340 97L382 47Z" fill="#011321" stroke="#011321"></path><path d="M209 90L236 164L274 142Z" fill="#001629" stroke="#001629"></path><path d="M243 173L196 264L281 227Z" fill="#011424" stroke="#011424"></path><path d="M620 451L582 436L626 472Z" fill="#01111c" stroke="#01111c"></path><path d="M560 443L582 436L596 396Z" fill="#01121e" stroke="#01121e"></path><path d="M671 279L654 280L623 318Z" fill="#01111c" stroke="#01111c"></path><path d="M623 318L654 280L606 306Z" fill="#010e17" stroke="#010e17"></path><path d="M627 125L616 117L604 140Z" fill="#010f19" stroke="#010f19"></path><path d="M671 279L623 318L731 330Z" fill="#01111c" stroke="#01111c"></path><path d="M382 47L340 97L440 85Z" fill="#00172f" stroke="#00172f"></path><path d="M379 40L382 47L427 16Z" fill="#011424" stroke="#011424"></path><path d="M293 51L274 98L336 74Z" fill="#00162c" stroke="#00162c"></path><path d="M336 74L274 98L340 97Z" fill="#01111c" stroke="#01111c"></path><path d="M173 221L196 264L243 173Z" fill="#011527" stroke="#011527"></path><path d="M235 421L241 412L150 399Z" fill="#00162c" stroke="#00162c"></path><path d="M244 373L241 412L256 387Z" fill="#001629" stroke="#001629"></path><path d="M256 387L287 463L325 351Z" fill="#01111c" stroke="#01111c"></path><path d="M199 338L253 364L217 295Z" fill="#011321" stroke="#011321"></path><path d="M382 47L379 40L361 55Z" fill="#01111c" stroke="#01111c"></path><path d="M361 55L293 51L336 74Z" fill="#010e17" stroke="#010e17"></path><path d="M427 16L382 47L440 85Z" fill="#01111c" stroke="#01111c"></path><path d="M241 412L245 421L256 387Z" fill="#011424" stroke="#011424"></path><path d="M245 421L287 463L256 387Z" fill="#011321" stroke="#011321"></path><path d="M164 294L199 338L217 295Z" fill="#01121e" stroke="#01121e"></path><path d="M241 412L235 421L245 421Z" fill="#010f19" stroke="#010f19"></path><path d="M656 388L623 318L596 396Z" fill="#011424" stroke="#011424"></path><path d="M654 280L717 225L616 183Z" fill="#01121e" stroke="#01121e"></path><path d="M627 125L604 140L642 141Z" fill="#011424" stroke="#011424"></path><path d="M604 140L616 117L579 127Z" fill="#011321" stroke="#011321"></path><path d="M584 46L517 45L533 81Z" fill="#010c14" stroke="#010c14"></path><path d="M533 81L517 45L475 92Z" fill="#001629" stroke="#001629"></path><path d="M150 399L241 412L244 373Z" fill="#00172f" stroke="#00172f"></path><path d="M245 421L229 448L287 463Z" fill="#01121e" stroke="#01121e"></path><path d="M642 141L604 140L616 183Z" fill="#010f19" stroke="#010f19"></path><path d="M425 482L485 512L434 465Z" fill="#010e17" stroke="#010e17"></path><path d="M516 461L533 501L560 443Z" fill="#011527" stroke="#011527"></path><path d="M473 540L485 512L425 482Z" fill="#010e17" stroke="#010e17"></path><path d="M375 523L425 482L385 481Z" fill="#00162c" stroke="#00162c"></path><path d="M683 136L642 141L707 160Z" fill="#010f19" stroke="#010f19"></path><path d="M485 512L533 501L516 461Z" fill="#011527" stroke="#011527"></path><path d="M620 451L596 396L582 436Z" fill="#010f19" stroke="#010f19"></path><path d="M620 451L656 388L596 396Z" fill="#011527" stroke="#011527"></path><path d="M460 0L440 85L475 92Z" fill="#011321" stroke="#011321"></path><path d="M335 540L375 523L385 481Z" fill="#01121e" stroke="#01121e"></path><path d="M338 0L293 51L361 55Z" fill="#00162c" stroke="#00162c"></path><path d="M181 132L173 221L236 164Z" fill="#010f19" stroke="#010f19"></path><path d="M340 0L361 55L379 40Z" fill="#01111c" stroke="#01111c"></path><path d="M236 164L173 221L243 173Z" fill="#001629" stroke="#001629"></path><path d="M196 264L164 294L217 295Z" fill="#010c14" stroke="#010c14"></path><path d="M216 85L274 142L274 98Z" fill="#01111c" stroke="#01111c"></path><path d="M626 472L582 436L560 443Z" fill="#00162c" stroke="#00162c"></path><path d="M163 275L164 294L196 264Z" fill="#011527" stroke="#011527"></path><path d="M147 406L229 448L235 421Z" fill="#010e17" stroke="#010e17"></path><path d="M173 221L163 275L196 264Z" fill="#010f19" stroke="#010f19"></path><path d="M150 399L244 373L199 338Z" fill="#010c14" stroke="#010c14"></path><path d="M235 421L229 448L245 421Z" fill="#00172f" stroke="#00172f"></path><path d="M375 540L387 540L375 523Z" fill="#001629" stroke="#001629"></path><path d="M375 540L375 523L335 540Z" fill="#011527" stroke="#011527"></path><path d="M375 523L387 540L425 482Z" fill="#011321" stroke="#011321"></path><path d="M485 512L501 540L533 501Z" fill="#00172f" stroke="#00172f"></path><path d="M387 540L473 540L425 482Z" fill="#011424" stroke="#011424"></path><path d="M533 501L626 472L560 443Z" fill="#01111c" stroke="#01111c"></path><path d="M473 540L474 540L485 512Z" fill="#011321" stroke="#011321"></path><path d="M517 45L460 0L475 92Z" fill="#001629" stroke="#001629"></path><path d="M427 16L340 0L379 40Z" fill="#00172f" stroke="#00172f"></path><path d="M491 0L460 0L517 45Z" fill="#00162c" stroke="#00162c"></path><path d="M584 46L579 127L612 55Z" fill="#011321" stroke="#011321"></path><path d="M612 55L616 117L692 79Z" fill="#00162c" stroke="#00162c"></path><path d="M612 55L579 127L616 117Z" fill="#01121e" stroke="#01121e"></path><path d="M335 540L385 481L287 463Z" fill="#00162c" stroke="#00162c"></path><path d="M620 451L667 408L656 388Z" fill="#011321" stroke="#011321"></path><path d="M719 271L714 259L671 279Z" fill="#01121e" stroke="#01121e"></path><path d="M474 540L501 540L485 512Z" fill="#010e17" stroke="#010e17"></path><path d="M542 0L491 0L517 45Z" fill="#011527" stroke="#011527"></path><path d="M553 532L626 472L533 501Z" fill="#010c14" stroke="#010c14"></path><path d="M620 451L683 436L667 408Z" fill="#011424" stroke="#011424"></path><path d="M692 79L616 117L627 125Z" fill="#011424" stroke="#011424"></path><path d="M544 0L542 0L517 45Z" fill="#011321" stroke="#011321"></path><path d="M293 51L216 85L274 98Z" fill="#011527" stroke="#011527"></path><path d="M260 536L335 540L287 463Z" fill="#010f19" stroke="#010f19"></path><path d="M719 271L671 279L731 330Z" fill="#010f19" stroke="#010f19"></path><path d="M671 279L717 225L654 280Z" fill="#010c14" stroke="#010c14"></path><path d="M642 141L683 136L627 125Z" fill="#00172f" stroke="#00172f"></path><path d="M209 90L181 132L236 164Z" fill="#001629" stroke="#001629"></path><path d="M173 221L140 217L163 275Z" fill="#00162c" stroke="#00162c"></path><path d="M216 85L209 90L274 142Z" fill="#001629" stroke="#001629"></path><path d="M460 0L340 0L427 16Z" fill="#011527" stroke="#011527"></path><path d="M293 51L211 80L216 85Z" fill="#010f19" stroke="#010f19"></path><path d="M340 0L338 0L361 55Z" fill="#011527" stroke="#011527"></path><path d="M707 160L642 141L616 183Z" fill="#010e17" stroke="#010e17"></path><path d="M501 540L553 532L533 501Z" fill="#00172f" stroke="#00172f"></path><path d="M731 330L623 318L656 388Z" fill="#01111c" stroke="#01111c"></path><path d="M714 259L717 225L671 279Z" fill="#010c14" stroke="#010c14"></path><path d="M229 448L251 500L287 463Z" fill="#00172f" stroke="#00172f"></path><path d="M242 0L211 80L293 51Z" fill="#001629" stroke="#001629"></path><path d="M216 85L211 80L209 90Z" fill="#01111c" stroke="#01111c"></path><path d="M209 90L174 106L181 132Z" fill="#011527" stroke="#011527"></path><path d="M78 281L147 341L164 294Z" fill="#011321" stroke="#011321"></path><path d="M164 294L147 341L199 338Z" fill="#00172f" stroke="#00172f"></path><path d="M229 448L174 491L251 500Z" fill="#001629" stroke="#001629"></path><path d="M78 281L164 294L163 275Z" fill="#011424" stroke="#011424"></path><path d="M749 246L717 225L714 259Z" fill="#011424" stroke="#011424"></path><path d="M544 0L517 45L584 46Z" fill="#010f19" stroke="#010f19"></path><path d="M141 205L140 217L173 221Z" fill="#011527" stroke="#011527"></path><path d="M581 0L544 0L584 46Z" fill="#01111c" stroke="#01111c"></path><path d="M136 188L141 205L173 221Z" fill="#011527" stroke="#011527"></path><path d="M717 225L707 160L616 183Z" fill="#01121e" stroke="#01121e"></path><path d="M683 136L692 79L627 125Z" fill="#011424" stroke="#011424"></path><path d="M626 472L683 436L620 451Z" fill="#01121e" stroke="#01121e"></path><path d="M726 406L731 330L656 388Z" fill="#00172f" stroke="#00172f"></path><path d="M659 488L683 436L626 472Z" fill="#011527" stroke="#011527"></path><path d="M211 80L174 106L209 90Z" fill="#011321" stroke="#011321"></path><path d="M181 132L136 188L173 221Z" fill="#01111c" stroke="#01111c"></path><path d="M174 106L136 188L181 132Z" fill="#01121e" stroke="#01121e"></path><path d="M141 205L129 216L140 217Z" fill="#011424" stroke="#011424"></path><path d="M140 217L129 216L163 275Z" fill="#010f19" stroke="#010f19"></path><path d="M338 0L290 0L293 51Z" fill="#011424" stroke="#011424"></path><path d="M211 80L139 64L174 106Z" fill="#010c14" stroke="#010c14"></path><path d="M136 188L129 216L141 205Z" fill="#011424" stroke="#011424"></path><path d="M752 188L715 161L717 225Z" fill="#010e17" stroke="#010e17"></path><path d="M717 225L715 161L707 160Z" fill="#011321" stroke="#011321"></path><path d="M707 160L734 101L683 136Z" fill="#011424" stroke="#011424"></path><path d="M147 406L150 399L132 413Z" fill="#011424" stroke="#011424"></path><path d="M147 341L150 399L199 338Z" fill="#01121e" stroke="#01121e"></path><path d="M726 406L656 388L667 408Z" fill="#010e17" stroke="#010e17"></path><path d="M719 271L749 246L714 259Z" fill="#01121e" stroke="#01121e"></path><path d="M612 55L581 0L584 46Z" fill="#010c14" stroke="#010c14"></path><path d="M672 0L581 0L612 55Z" fill="#01121e" stroke="#01121e"></path><path d="M132 413L150 399L107 389Z" fill="#00162c" stroke="#00162c"></path><path d="M150 399L147 406L235 421Z" fill="#010e17" stroke="#010e17"></path><path d="M201 540L260 536L251 500Z" fill="#001629" stroke="#001629"></path><path d="M251 500L260 536L287 463Z" fill="#011527" stroke="#011527"></path><path d="M501 540L595 540L553 532Z" fill="#00162c" stroke="#00162c"></path><path d="M553 532L595 540L626 472Z" fill="#010e17" stroke="#010e17"></path><path d="M595 540L659 488L626 472Z" fill="#010f19" stroke="#010f19"></path><path d="M774 268L749 246L719 271Z" fill="#011527" stroke="#011527"></path><path d="M668 540L672 484L659 488Z" fill="#01111c" stroke="#01111c"></path><path d="M659 488L672 484L683 436Z" fill="#011527" stroke="#011527"></path><path d="M683 436L726 406L667 408Z" fill="#011424" stroke="#011424"></path><path d="M753 451L726 406L683 436Z" fill="#00162c" stroke="#00162c"></path><path d="M731 330L774 268L719 271Z" fill="#01121e" stroke="#01121e"></path><path d="M734 101L707 160L715 161Z" fill="#010f19" stroke="#010f19"></path><path d="M734 101L692 79L683 136Z" fill="#01121e" stroke="#01121e"></path><path d="M107 389L150 399L147 341Z" fill="#010e17" stroke="#010e17"></path><path d="M147 406L174 491L229 448Z" fill="#011424" stroke="#011424"></path><path d="M290 0L242 0L293 51Z" fill="#011527" stroke="#011527"></path><path d="M749 246L752 188L717 225Z" fill="#00162c" stroke="#00162c"></path><path d="M136 188L99 228L129 216Z" fill="#00172f" stroke="#00172f"></path><path d="M129 216L99 228L163 275Z" fill="#010f19" stroke="#010f19"></path><path d="M58 240L99 228L52 183Z" fill="#011527" stroke="#011527"></path><path d="M119 441L174 491L147 406Z" fill="#01111c" stroke="#01111c"></path><path d="M75 336L107 389L147 341Z" fill="#011321" stroke="#011321"></path><path d="M132 413L119 441L147 406Z" fill="#011424" stroke="#011424"></path><path d="M792 344L774 268L731 330Z" fill="#011424" stroke="#011424"></path><path d="M749 246L827 222L752 188Z" fill="#010f19" stroke="#010f19"></path><path d="M758 402L750 400L753 451Z" fill="#010e17" stroke="#010e17"></path><path d="M726 406L750 400L731 330Z" fill="#01121e" stroke="#01121e"></path><path d="M766 131L734 101L715 161Z" fill="#00172f" stroke="#00172f"></path><path d="M692 79L672 0L612 55Z" fill="#011321" stroke="#011321"></path><path d="M734 99L734 101L752 95Z" fill="#001629" stroke="#001629"></path><path d="M766 131L715 161L752 188Z" fill="#011527" stroke="#011527"></path><path d="M734 101L734 99L692 79Z" fill="#011527" stroke="#011527"></path><path d="M99 228L78 281L163 275Z" fill="#010c14" stroke="#010c14"></path><path d="M174 491L201 540L251 500Z" fill="#010f19" stroke="#010f19"></path><path d="M260 536L201 540L335 540Z" fill="#01121e" stroke="#01121e"></path><path d="M168 540L201 540L174 491Z" fill="#010e17" stroke="#010e17"></path><path d="M753 451L750 400L726 406Z" fill="#011527" stroke="#011527"></path><path d="M750 400L792 344L731 330Z" fill="#011527" stroke="#011527"></path><path d="M111 442L132 413L107 389Z" fill="#011424" stroke="#011424"></path><path d="M111 442L119 441L132 413Z" fill="#011424" stroke="#011424"></path><path d="M160 0L139 64L211 80Z" fill="#011424" stroke="#011424"></path><path d="M174 106L86 72L136 188Z" fill="#010f19" stroke="#010f19"></path><path d="M55 256L63 308L78 281Z" fill="#001629" stroke="#001629"></path><path d="M595 540L666 540L659 488Z" fill="#011321" stroke="#011321"></path><path d="M672 484L753 451L683 436Z" fill="#011527" stroke="#011527"></path><path d="M666 540L668 540L659 488Z" fill="#01111c" stroke="#01111c"></path><path d="M78 281L75 336L147 341Z" fill="#011424" stroke="#011424"></path><path d="M63 418L111 442L107 389Z" fill="#010e17" stroke="#010e17"></path><path d="M119 441L145 540L174 491Z" fill="#00162c" stroke="#00162c"></path><path d="M699 0L672 0L692 79Z" fill="#010f19" stroke="#010f19"></path><path d="M788 146L766 131L752 188Z" fill="#010c14" stroke="#010c14"></path><path d="M734 99L752 95L692 79Z" fill="#01121e" stroke="#01121e"></path><path d="M766 131L752 95L734 101Z" fill="#01121e" stroke="#01121e"></path><path d="M78 281L63 308L75 336Z" fill="#011424" stroke="#011424"></path><path d="M59 413L63 418L107 389Z" fill="#011527" stroke="#011527"></path><path d="M58 240L78 281L99 228Z" fill="#01121e" stroke="#01121e"></path><path d="M797 355L792 344L750 400Z" fill="#00162c" stroke="#00162c"></path><path d="M827 222L788 146L752 188Z" fill="#001629" stroke="#001629"></path><path d="M714 540L753 451L672 484Z" fill="#011424" stroke="#011424"></path><path d="M758 402L797 355L750 400Z" fill="#00162c" stroke="#00162c"></path><path d="M52 183L99 228L136 188Z" fill="#01111c" stroke="#01111c"></path><path d="M153 540L168 540L174 491Z" fill="#011321" stroke="#011321"></path><path d="M58 240L55 256L78 281Z" fill="#010c14" stroke="#010c14"></path><path d="M810 358L797 355L824 391Z" fill="#010e17" stroke="#010e17"></path><path d="M792 344L810 264L774 268Z" fill="#010f19" stroke="#010f19"></path><path d="M827 222L749 246L774 268Z" fill="#011321" stroke="#011321"></path><path d="M766 131L815 104L752 95Z" fill="#010c14" stroke="#010c14"></path><path d="M810 358L810 264L792 344Z" fill="#011424" stroke="#011424"></path><path d="M242 0L160 0L211 80Z" fill="#011527" stroke="#011527"></path><path d="M53 105L52 183L136 188Z" fill="#011527" stroke="#011527"></path><path d="M732 -3L692 79L747 0Z" fill="#01111c" stroke="#01111c"></path><path d="M732 -3L699 0L692 79Z" fill="#010e17" stroke="#010e17"></path><path d="M145 540L153 540L174 491Z" fill="#01121e" stroke="#01121e"></path><path d="M86 72L174 106L139 64Z" fill="#00162c" stroke="#00162c"></path><path d="M17 232L18 263L55 256Z" fill="#01121e" stroke="#01121e"></path><path d="M824 391L797 355L758 402Z" fill="#011321" stroke="#011321"></path><path d="M797 355L810 358L792 344Z" fill="#00162c" stroke="#00162c"></path><path d="M111 442L145 540L119 441Z" fill="#001629" stroke="#001629"></path><path d="M43 501L145 540L111 442Z" fill="#010e17" stroke="#010e17"></path><path d="M668 540L714 540L672 484Z" fill="#01121e" stroke="#01121e"></path><path d="M815 453L824 391L758 402Z" fill="#001629" stroke="#001629"></path><path d="M59 413L75 336L0 354Z" fill="#01121e" stroke="#01121e"></path><path d="M59 413L107 389L75 336Z" fill="#00172f" stroke="#00172f"></path><path d="M0 336L75 336L63 308Z" fill="#00162c" stroke="#00162c"></path><path d="M63 418L52 445L111 442Z" fill="#001629" stroke="#001629"></path><path d="M18 263L63 308L55 256Z" fill="#011527" stroke="#011527"></path><path d="M160 0L140 0L139 64Z" fill="#001629" stroke="#001629"></path><path d="M94 48L86 72L139 64Z" fill="#00172f" stroke="#00172f"></path><path d="M832 254L827 222L810 264Z" fill="#011527" stroke="#011527"></path><path d="M810 264L827 222L774 268Z" fill="#011424" stroke="#011424"></path><path d="M881 288L832 254L810 264Z" fill="#011424" stroke="#011424"></path><path d="M122 0L94 48L139 64Z" fill="#010e17" stroke="#010e17"></path><path d="M747 0L692 79L752 95Z" fill="#00162c" stroke="#00162c"></path><path d="M699 0L732 -3L672 0Z" fill="#01111c" stroke="#01111c"></path><path d="M672 0L732 -3L581 0Z" fill="#00172f" stroke="#00172f"></path><path d="M581 0L732 -3L544 0Z" fill="#011321" stroke="#011321"></path><path d="M544 0L732 -3L542 0Z" fill="#011424" stroke="#011424"></path><path d="M542 0L732 -3L491 0Z" fill="#00162c" stroke="#00162c"></path><path d="M491 0L732 -3L460 0Z" fill="#00162c" stroke="#00162c"></path><path d="M460 0L732 -3L340 0Z" fill="#001629" stroke="#001629"></path><path d="M340 0L732 -3L338 0Z" fill="#01121e" stroke="#01121e"></path><path d="M338 0L732 -3L290 0Z" fill="#011527" stroke="#011527"></path><path d="M290 0L732 -3L242 0Z" fill="#010c14" stroke="#010c14"></path><path d="M242 0L732 -3L160 0Z" fill="#01111c" stroke="#01111c"></path><path d="M160 0L732 -3L140 0Z" fill="#00162c" stroke="#00162c"></path><path d="M747 0L752 95L769 0Z" fill="#011527" stroke="#011527"></path><path d="M68 0L87 48L94 48Z" fill="#00172f" stroke="#00172f"></path><path d="M94 48L87 48L86 72Z" fill="#011321" stroke="#011321"></path><path d="M86 72L53 105L136 188Z" fill="#00172f" stroke="#00172f"></path><path d="M140 0L122 0L139 64Z" fill="#00162c" stroke="#00162c"></path><path d="M732 -3L122 0L140 0Z" fill="#010e17" stroke="#010e17"></path><path d="M17 232L58 240L52 183Z" fill="#011321" stroke="#011321"></path><path d="M17 232L55 256L58 240Z" fill="#010e17" stroke="#010e17"></path><path d="M0 83L53 105L0 47Z" fill="#010f19" stroke="#010f19"></path><path d="M815 453L758 402L753 451Z" fill="#011321" stroke="#011321"></path><path d="M810 358L881 288L810 264Z" fill="#011527" stroke="#011527"></path><path d="M0 225L17 232L0 181Z" fill="#01111c" stroke="#01111c"></path><path d="M0 416L52 445L59 413Z" fill="#001629" stroke="#001629"></path><path d="M59 413L52 445L63 418Z" fill="#011424" stroke="#011424"></path><path d="M771 540L792 476L753 451Z" fill="#01121e" stroke="#01121e"></path><path d="M815 104L766 131L788 146Z" fill="#00172f" stroke="#00172f"></path><path d="M43 501L53 458L0 480Z" fill="#010f19" stroke="#010f19"></path><path d="M52 445L53 458L111 442Z" fill="#011321" stroke="#011321"></path><path d="M849 211L788 146L827 222Z" fill="#001629" stroke="#001629"></path><path d="M864 147L815 104L788 146Z" fill="#01111c" stroke="#01111c"></path><path d="M832 254L849 211L827 222Z" fill="#011424" stroke="#011424"></path><path d="M882 244L849 211L832 254Z" fill="#011321" stroke="#011321"></path><path d="M792 476L815 453L753 451Z" fill="#010f19" stroke="#010f19"></path><path d="M17 232L0 261L18 263Z" fill="#01121e" stroke="#01121e"></path><path d="M18 263L0 336L63 308Z" fill="#00172f" stroke="#00172f"></path><path d="M0 225L0 261L17 232Z" fill="#011424" stroke="#011424"></path><path d="M0 181L17 232L52 183Z" fill="#001629" stroke="#001629"></path><path d="M0 261L0 336L18 263Z" fill="#011424" stroke="#011424"></path><path d="M714 540L771 540L753 451Z" fill="#00172f" stroke="#00172f"></path><path d="M792 476L854 478L815 453Z" fill="#01121e" stroke="#01121e"></path><path d="M794 2L769 0L752 95Z" fill="#010c14" stroke="#010c14"></path><path d="M747 0L769 0L732 -3Z" fill="#010c14" stroke="#010c14"></path><path d="M873 431L835 434L854 478Z" fill="#011527" stroke="#011527"></path><path d="M815 453L835 434L824 391Z" fill="#001629" stroke="#001629"></path><path d="M910 363L881 288L810 358Z" fill="#011424" stroke="#011424"></path><path d="M0 336L0 354L75 336Z" fill="#011527" stroke="#011527"></path><path d="M7 127L52 183L53 105Z" fill="#00172f" stroke="#00172f"></path><path d="M0 141L0 181L52 183Z" fill="#010f19" stroke="#010f19"></path><path d="M771 540L777 540L792 476Z" fill="#011527" stroke="#011527"></path><path d="M53 105L86 72L0 47Z" fill="#01111c" stroke="#01111c"></path><path d="M0 83L7 127L53 105Z" fill="#010e17" stroke="#010e17"></path><path d="M7 127L0 141L52 183Z" fill="#00162c" stroke="#00162c"></path><path d="M0 452L53 458L52 445Z" fill="#01111c" stroke="#01111c"></path><path d="M53 458L43 501L111 442Z" fill="#001629" stroke="#001629"></path><path d="M903 381L810 358L824 391Z" fill="#011424" stroke="#011424"></path><path d="M849 211L864 147L788 146Z" fill="#010f19" stroke="#010f19"></path><path d="M921 169L864 147L849 211Z" fill="#010f19" stroke="#010f19"></path><path d="M815 104L794 2L752 95Z" fill="#001629" stroke="#001629"></path><path d="M122 0L68 0L94 48Z" fill="#01121e" stroke="#01121e"></path><path d="M7 127L0 83L0 141Z" fill="#010f19" stroke="#010f19"></path><path d="M732 -3L68 0L122 0Z" fill="#011424" stroke="#011424"></path><path d="M0 354L0 416L59 413Z" fill="#01111c" stroke="#01111c"></path><path d="M881 288L882 244L832 254Z" fill="#011424" stroke="#011424"></path><path d="M769 0L821 0L732 -3Z" fill="#010c14" stroke="#010c14"></path><path d="M821 0L794 2L815 104Z" fill="#01111c" stroke="#01111c"></path><path d="M714 540L798 544L771 540Z" fill="#011527" stroke="#011527"></path><path d="M771 540L798 544L777 540Z" fill="#011424" stroke="#011424"></path><path d="M777 540L798 544L792 476Z" fill="#010e17" stroke="#010e17"></path><path d="M668 540L798 544L714 540Z" fill="#011321" stroke="#011321"></path><path d="M666 540L798 544L668 540Z" fill="#010e17" stroke="#010e17"></path><path d="M595 540L798 544L666 540Z" fill="#011527" stroke="#011527"></path><path d="M501 540L798 544L595 540Z" fill="#010e17" stroke="#010e17"></path><path d="M474 540L798 544L501 540Z" fill="#01111c" stroke="#01111c"></path><path d="M473 540L798 544L474 540Z" fill="#00172f" stroke="#00172f"></path><path d="M387 540L798 544L473 540Z" fill="#010f19" stroke="#010f19"></path><path d="M960 548L798 544L387 540Z" fill="#01111c" stroke="#01111c"></path><path d="M960 548L387 540L375 540Z" fill="#011424" stroke="#011424"></path><path d="M960 548L375 540L335 540Z" fill="#001629" stroke="#001629"></path><path d="M960 548L335 540L201 540Z" fill="#001629" stroke="#001629"></path><path d="M960 548L201 540L168 540Z" fill="#010f19" stroke="#010f19"></path><path d="M960 548L168 540L153 540Z" fill="#00162c" stroke="#00162c"></path><path d="M0 416L0 452L52 445Z" fill="#011424" stroke="#011424"></path><path d="M732 -3L49 0L68 0Z" fill="#011527" stroke="#011527"></path><path d="M68 0L49 0L87 48Z" fill="#010c14" stroke="#010c14"></path><path d="M0 47L86 72L87 48Z" fill="#00162c" stroke="#00162c"></path><path d="M854 478L835 434L815 453Z" fill="#00172f" stroke="#00172f"></path><path d="M835 434L873 431L824 391Z" fill="#00162c" stroke="#00162c"></path><path d="M798 544L854 478L792 476Z" fill="#00172f" stroke="#00172f"></path><path d="M891 132L885 133L921 169Z" fill="#01111c" stroke="#01111c"></path><path d="M864 147L876 86L815 104Z" fill="#011424" stroke="#011424"></path><path d="M885 133L864 147L921 169Z" fill="#01111c" stroke="#01111c"></path><path d="M794 2L821 0L769 0Z" fill="#011527" stroke="#011527"></path><path d="M827 0L821 0L815 104Z" fill="#010f19" stroke="#010f19"></path><path d="M0 452L0 480L53 458Z" fill="#011424" stroke="#011424"></path><path d="M876 86L827 0L815 104Z" fill="#01111c" stroke="#01111c"></path><path d="M821 0L827 0L732 -3Z" fill="#010e17" stroke="#010e17"></path><path d="M0 416L-1 489L0 452Z" fill="#011424" stroke="#011424"></path><path d="M0 452L-1 489L0 480Z" fill="#011424" stroke="#011424"></path><path d="M0 480L-1 489L43 501Z" fill="#011527" stroke="#011527"></path><path d="M43 501L11 540L145 540Z" fill="#01111c" stroke="#01111c"></path><path d="M0 354L-1 489L0 416Z" fill="#00172f" stroke="#00172f"></path><path d="M0 336L-1 489L0 354Z" fill="#011424" stroke="#011424"></path><path d="M0 261L-1 489L0 336Z" fill="#011424" stroke="#011424"></path><path d="M0 225L-1 489L0 261Z" fill="#011424" stroke="#011424"></path><path d="M0 181L-1 489L0 225Z" fill="#001629" stroke="#001629"></path><path d="M0 141L-1 489L0 181Z" fill="#001629" stroke="#001629"></path><path d="M0 83L-1 489L0 141Z" fill="#011321" stroke="#011321"></path><path d="M909 218L849 211L882 244Z" fill="#00162c" stroke="#00162c"></path><path d="M885 133L876 86L864 147Z" fill="#011424" stroke="#011424"></path><path d="M909 218L882 244L932 221Z" fill="#010e17" stroke="#010e17"></path><path d="M932 221L882 244L960 262Z" fill="#011321" stroke="#011321"></path><path d="M891 132L876 86L885 133Z" fill="#01121e" stroke="#01121e"></path><path d="M49 0L0 47L87 48Z" fill="#00172f" stroke="#00172f"></path><path d="M0 83L0 47L-1 489Z" fill="#00162c" stroke="#00162c"></path><path d="M883 448L903 381L873 431Z" fill="#01111c" stroke="#01111c"></path><path d="M873 431L903 381L824 391Z" fill="#010c14" stroke="#010c14"></path><path d="M902 459L883 448L854 478Z" fill="#001629" stroke="#001629"></path><path d="M854 478L883 448L873 431Z" fill="#011321" stroke="#011321"></path><path d="M926 340L910 363L952 377Z" fill="#011424" stroke="#011424"></path><path d="M903 381L910 363L810 358Z" fill="#010e17" stroke="#010e17"></path><path d="M-1 489L11 540L43 501Z" fill="#010f19" stroke="#010f19"></path><path d="M145 540L960 548L153 540Z" fill="#010e17" stroke="#010e17"></path><path d="M952 377L910 363L903 381Z" fill="#011321" stroke="#011321"></path><path d="M910 363L926 340L881 288Z" fill="#010c14" stroke="#010c14"></path><path d="M909 218L921 169L849 211Z" fill="#011321" stroke="#011321"></path><path d="M891 132L915 48L876 86Z" fill="#00172f" stroke="#00172f"></path><path d="M932 221L921 169L909 218Z" fill="#011321" stroke="#011321"></path><path d="M960 266L882 244L881 288Z" fill="#01111c" stroke="#01111c"></path><path d="M-1 489L0 540L11 540Z" fill="#011424" stroke="#011424"></path><path d="M11 540L960 548L145 540Z" fill="#01121e" stroke="#01121e"></path><path d="M732 -3L0 0L49 0Z" fill="#011527" stroke="#011527"></path><path d="M49 0L0 0L0 47Z" fill="#001629" stroke="#001629"></path><path d="M0 47L0 0L-1 489Z" fill="#011321" stroke="#011321"></path><path d="M883 448L902 459L903 381Z" fill="#001629" stroke="#001629"></path><path d="M894 540L902 459L854 478Z" fill="#00172f" stroke="#00172f"></path><path d="M798 544L870 540L854 478Z" fill="#010c14" stroke="#010c14"></path><path d="M960 223L950 210L932 221Z" fill="#00162c" stroke="#00162c"></path><path d="M932 221L950 210L921 169Z" fill="#010e17" stroke="#010e17"></path><path d="M915 48L887 0L876 86Z" fill="#001629" stroke="#001629"></path><path d="M876 86L887 0L827 0Z" fill="#00172f" stroke="#00172f"></path><path d="M926 340L960 266L881 288Z" fill="#01111c" stroke="#01111c"></path><path d="M960 335L960 266L926 340Z" fill="#011321" stroke="#011321"></path><path d="M960 266L960 262L882 244Z" fill="#01121e" stroke="#01121e"></path><path d="M827 0L887 0L732 -3Z" fill="#010e17" stroke="#010e17"></path><path d="M915 48L891 132L960 143Z" fill="#011321" stroke="#011321"></path><path d="M960 262L960 223L932 221Z" fill="#011424" stroke="#011424"></path><path d="M960 143L891 132L921 169Z" fill="#001629" stroke="#001629"></path><path d="M960 397L903 381L960 412Z" fill="#00172f" stroke="#00172f"></path><path d="M960 397L952 377L903 381Z" fill="#00172f" stroke="#00172f"></path><path d="M952 377L960 335L926 340Z" fill="#011527" stroke="#011527"></path><path d="M960 169L921 169L950 210Z" fill="#01111c" stroke="#01111c"></path><path d="M960 548L894 540L870 540Z" fill="#011424" stroke="#011424"></path><path d="M870 540L894 540L854 478Z" fill="#001629" stroke="#001629"></path><path d="M960 223L960 169L950 210Z" fill="#001629" stroke="#001629"></path><path d="M960 412L903 381L960 426Z" fill="#00162c" stroke="#00162c"></path><path d="M952 377L960 397L960 335Z" fill="#01121e" stroke="#01121e"></path><path d="M960 169L960 143L921 169Z" fill="#010c14" stroke="#010c14"></path><path d="M960 426L903 381L902 459Z" fill="#011321" stroke="#011321"></path><path d="M960 482L960 426L902 459Z" fill="#011527" stroke="#011527"></path><path d="M894 540L960 482L902 459Z" fill="#010f19" stroke="#010f19"></path><path d="M960 143L960 25L915 48Z" fill="#001629" stroke="#001629"></path><path d="M915 48L960 0L887 0Z" fill="#00162c" stroke="#00162c"></path><path d="M894 540L960 540L960 482Z" fill="#01111c" stroke="#01111c"></path><path d="M960 548L960 540L894 540Z" fill="#01121e" stroke="#01121e"></path><path d="M960 25L960 0L915 48Z" fill="#010f19" stroke="#010f19"></path><path d="M887 0L960 0L732 -3Z" fill="#00162c" stroke="#00162c"></path><path d="M960 143L965 9L960 25Z" fill="#001629" stroke="#001629"></path><path d="M960 25L965 9L960 0Z" fill="#00172f" stroke="#00172f"></path><path d="M960 169L965 9L960 143Z" fill="#001629" stroke="#001629"></path><path d="M960 223L965 9L960 169Z" fill="#010f19" stroke="#010f19"></path><path d="M960 262L965 9L960 223Z" fill="#011424" stroke="#011424"></path><path d="M960 266L965 9L960 262Z" fill="#00162c" stroke="#00162c"></path><path d="M960 335L965 9L960 266Z" fill="#01111c" stroke="#01111c"></path><path d="M960 397L965 9L960 335Z" fill="#00162c" stroke="#00162c"></path><path d="M960 412L965 9L960 397Z" fill="#010c14" stroke="#010c14"></path><path d="M960 426L965 9L960 412Z" fill="#011424" stroke="#011424"></path><path d="M960 482L965 9L960 426Z" fill="#001629" stroke="#001629"></path><path d="M960 540L965 9L960 482Z" fill="#01121e" stroke="#01121e"></path><path d="M798 544L960 548L870 540Z" fill="#010f19" stroke="#010f19"></path><path d="M960 540L960 548L965 9Z" fill="#011527" stroke="#011527"></path><path d="M0 540L960 548L11 540Z" fill="#010f19" stroke="#010f19"></path></g></svg>